<?xml version="1.0" encoding="iso-8859-1"?>
<!-- Generator: Adobe Illustrator 19.0.0, SVG Export Plug-In . SVG Version: 6.00 Build 0)  -->
<svg version="1.1" id="Layer_1" xmlns="http://www.w3.org/2000/svg" xmlns:xlink="http://www.w3.org/1999/xlink" x="0px" y="0px"
	 viewBox="0 0 410 410" style="enable-background:new 0 0 410 410;" xml:space="preserve">
<g id="XMLID_889_">
	<path id="XMLID_896_" style="fill:#231F20;" d="M205,0C91.962,0,0,91.962,0,205s91.962,205,205,205c113.037,0,205-91.962,205-205
		S318.037,0,205,0z M205,390c-102.009,0-185-82.991-185-185S102.991,20,205,20c102.01,0,185,82.991,185,185S307.01,390,205,390z"/>
	<path id="XMLID_905_" style="fill:#231F20;" d="M205,40c-90.981,0-165,74.019-165,165s74.019,165,165,165s165-74.019,165-165
		S295.981,40,205,40z M205,350c-79.953,0-145-65.047-145-145S125.047,60,205,60s145,65.047,145,145S284.953,350,205,350z"/>
	<path id="XMLID_913_" style="fill:#231F20;" d="M251.067,205.233c-4.304-2.707-9.212-4.959-14.567-6.718V129H252
		c5.522,0,10-4.477,10-10s-4.478-10-10-10h-15.5V89c0-5.523-4.478-10-10-10s-10,4.477-10,10v20h-10c-3.392,0-6.731,0.17-10,0.492V89
		c0-5.523-4.477-10-10-10s-10,4.477-10,10v24.745c-5.393,1.854-10.35,4.228-14.716,7.082C148.381,129.59,141,142.436,141,157v10
		c0,14.576,7.434,27.279,20.932,35.767c4.305,2.707,9.212,4.959,14.568,6.718V279H161c-5.523,0-10,4.477-10,10s4.477,10,10,10h15.5
		v20c0,5.523,4.477,10,10,10s10-4.477,10-10v-20h10c3.396,0,6.735-0.161,10-0.466V319c0,5.523,4.478,10,10,10s10-4.477,10-10
		v-24.515c5.356-1.76,10.263-4.011,14.567-6.718C264.566,279.279,272,266.576,272,252v-11
		C272,226.424,264.566,213.721,251.067,205.233z M206.5,129h10v65.466c-3.265-0.305-6.604-0.466-10-0.466
		c-3.324,0-6.687-0.198-10-0.592v-63.771C199.79,129.217,203.147,129,206.5,129z M161,167v-10c0-9.623,6.279-16.839,15.5-21.536
		v52.464C167.344,183.51,161,176.615,161,167z M206.5,279h-10v-65.466c3.265,0.305,6.604,0.466,10,0.466
		c3.324,0,6.687,0.198,10,0.592v63.815C213.187,278.802,209.824,279,206.5,279z M252,252c0,9.615-6.344,16.51-15.5,20.928v-52.856
		C245.656,224.49,252,231.385,252,241V252z"/>
</g>
<g>
</g>
<g>
</g>
<g>
</g>
<g>
</g>
<g>
</g>
<g>
</g>
<g>
</g>
<g>
</g>
<g>
</g>
<g>
</g>
<g>
</g>
<g>
</g>
<g>
</g>
<g>
</g>
<g>
</g>
</svg>
